/* XPM */
static char *result[] = {
/* columns rows colors chars-per-pixel */
"64 64 83 1 ",
"  c black",
". c #010101",
"X c #020202",
"o c gray1",
"O c #070606",
"+ c #0B1103",
"@ c #101010",
"# c #111111",
"$ c gray7",
"% c #131212",
"& c gray9",
"* c #171A13",
"= c #171917",
"- c #191F11",
"; c #181B18",
": c #1A2012",
"> c #1B2113",
", c #182417",
"< c #1A3417",
"1 c #16391F",
"2 c #163A1F",
"3 c #2B3F18",
"4 c #163A20",
"5 c #1F3F27",
"6 c #203F27",
"7 c #203E28",
"8 c #213F29",
"9 c #223E29",
"0 c #253D2B",
"q c #243E2A",
"w c #273C2C",
"e c #2C3A2F",
"r c #283C2C",
"t c #2F3831",
"y c #333232",
"u c #343333",
"i c #333533",
"p c #343533",
"a c #343633",
"s c #333634",
"d c #343434",
"f c #353434",
"g c #353534",
"h c #353535",
"j c #363434",
"k c #363535",
"l c #343634",
"z c #303832",
"x c #313833",
"c c #1B4018",
"v c #34501A",
"b c #35501A",
"n c #37541C",
"m c #3D5F1D",
"M c #1F6E18",
"N c #194123",
"B c #1A4123",
"V c #194223",
"C c #1A4223",
"Z c #1A4124",
"A c #1B4124",
"S c #194224",
"D c #1A4224",
"F c #1B4224",
"G c #1B4225",
"H c #1C4124",
"J c #1C4125",
"K c #1C4225",
"L c #1D4126",
"P c #1F4027",
"I c #41671E",
"U c #684A30",
"Y c #694B31",
"T c #684C30",
"R c #684D31",
"E c #6A4C32",
"W c #6D4D31",
"Q c #4B7C21",
"! c #4C7C20",
"~ c #4D7F20",
"^ c #25A21A",
"/ c #26B11A",
"( c #2AD01B",
/* pixels */
"1111111111111111111111111111111111111111111111111111111111111111",
"1111111111111111111111111111111111111111111111111111111111111111",
"41BDDDDDDDDDDDDDDDDDDDDDDDDDDDDDDDDDDDDDDDDDDDDDDDDDDDDDDDDDDD41",
"41BDDDDDDDDDDDDDDDDDDDDDDDDDJ70wr08HDDDDDDDDDDDDDDDDDDDDDDDDDD41",
"41BDDDDDDDDDDDDDDDDDDDDDD              DDDDDDDDDDDDDDDDDDDDDDD41",
"41BDDDDDDDDDDDDDDDDDDDD   jhjffkkhffhja  DDDDDDDDDDDDDDDDDDDDD41",
"21ZDDDDDDDDDDDDDDDDDD  zkfkffdffffkffhfje  DDDDDDDDDDDDDDDDDDD21",
"21ZDDDDDDDDDDDDDDDDD5 gfffffffffffffkfkffi   DDDDDDDDDDDDDDDDD21",
"21ZDDDDDDDDDDDDDDDDD  ffffkkkkfkffffffkfkfff   FDDDDDDDDDDDDDD21",
"21ZDDDDDDDDDDDDDDDDD fkkkfkkfkfkfkfkffffffkkkk  ADDDDDDDDDDDDD21",
"21ZDDVNDDDDDDDDDDDD  fkkkfk        ffkffffkkkkg  DDDDDDDDDDDDD21",
"21ZDSSDBSNDDDDDDDDD kkfkk  ##$@@##   fkffffkkkkk  LDDDDDDDDDDD21",
"21ZDDDVDSDCSDDDDDD  kkkk :>>#$$$$$$$   fkffjkkkkk  9GDDDDDDDDD21",
"21ZDDDDDDVDSDDDDDD kkkk :nIn>$$$$*>>*$  kffkjjkkkkh LDDDDDDDDD21",
"21ZDDDDDDDDDDDDDDD kkkk +I~I>$$$*3mm3*$  fkfkkjkkkkg DDDDDDDDD21",
"21ZDDDDDDDDDDDDDD6 kkky      $##*vQ!b*$% kkfkkjjkkklk DDDDDDDD21",
"21ZDDDDDDDDDDDDDDq kk    $$$$$$$*3mm3*$$ khfkkkkkkkkf DDDDDDDD21",
"21ZDDDDDDDDDDDDDDw k  $$$$$$$$$$$*>-*$$@ kkfkkkkkkkkk DDDDDDDD21",
"11DDDDDDDDDDDDDDD   $$$$$$$$$$$$$$$$$$$$ kkkjk kkkkkk  DDDDDDD11",
"11DDDDDDDDDDDDDDD $$$$$$$$$$$$$$$$$#$$$# kkkkk  kkkkkf DDDDDDD11",
"11DDDDDDDDDDDDDD $$$$$$$$$$$$$$$$$$$$$$$ kkkkk     kg DDDDDDDD11",
"11DDDDDDDDDDDDD  $$$$$$$$$$$$$$$$$$#$$$# kkkkk DLD    DDDDDDDD11",
"11DDDDDDDDDDDD  $$$$$$$$$$$$$$$$#$$$$$$$ kkkk  DDPDDDDDDDDDDDD11",
"11DDDDDDDDDDDD $$$$$$$$$$$$$$$$$$$$$$$$  kkkk DDDDDDDDDDDDDDDD11",
"11DDDDDDDDDDD  $$$$$$$$$$$$$$$$$$$$$$$# kkkk  DDDDDDDDDDDDDDDD11",
"11DDDDDDDDDDD $$$$$$$$$$$      $$$$$$#  kkkk DDDDDDDDDDDDDDDDD11",
"11DDDDDDDDDDD $$$$$$$$    O o##$@$##o  kkkk  DDDDDDDDDDDDDDDDD11",
"11DDDDDDDDDD  $$$$$$   kkf            kkkk  DDDDDDDDDDDDDDDDDD11",
"11DDDDDDDDDD $$$$$    kkkkk  X.Xo   kkkkkk DDDDDDDDDDDDDDDDDDD11",
"11DDDDDDDDDD $$$$  DDZ  kkkk      ukkkkkk  DDDDDDDDDDDDDDDDDDD11",
"11DDDDDDDDDD $$$ DDDDDD  kkkkkkkkkkkkkkk  DDDDDDDDDDDDDDDDDDDD11",
"11DDDDDDDDDD $$ DDDDDDDD  kkkkkkkkkkkkx DDDDDDDDDDDDDDDDDDDDDD11",
"11DDDDDDDDDD $ DDDDDDDDDD kkkkkkkkkkkk  DDDDDDDDDDDDDDDDDDDDDD11",
"11DDDDDDDDDD  DDDDDDDD    kkkjkkkkkkkk  DDDDDDDDDDDDDDDDDDDDDD11",
"11DDDDDDDDDDDDDDDDDDD  kkkkkkkkkkkkkkkk DDDDDDDDDDDDDDDDDDDDDD11",
"11DDDDDDDDDDDDDDDDDD  fkkkkkkkkkkkkkkkk  DDDDDDDDDDDDDDDDDDDDD11",
"11DDDD    DDDDDDDDD  pkkkkkkkkkkkkkkkkkk DDDDDDDDDDDDDDDDDDDDD11",
"11DDD RWWR  DDDDDD  ljkkkfkkkkkkkkkkkkkk  DDDDDDDDDDDDDDDDDDDD11",
"11DD TWWWWY  PDD   fkkkkkkkkkkkkkkkkkkkkk DDDDDDDDDDDDDDDDDDDD11",
"11DD TWWWWE k    fkkfffkfkkkkkkkkkkkkkkkk  DDDDDDDDDDDDDDDDDDD11",
"11DD  W W Y kkkkkffffkkfkkkkkkkkkkk kkkkkk DDDDDDDDDDDDDDDDDDD11",
"11D   U W    kkffkkfk kfkkkkkkkkkkk kkkkkk  DDDDDDDDDDDDDDDDDD11",
"11D        & kkkkfkfk kfkkkkkkkkkkk kkkkkkt DDDDDDDDDDDDDDDDDD11",
"11D ,cMMMc,= fkkkfkf  fkkkkkkkkkkkk kkkkkkk DDDDDDDDDDDDDDDDDD11",
"11D <M^/^M<; ikkkfff kkkkkkkkkkkkkk kkkk kk  DDDDDDDDDDDDDDDDD11",
"12D <M/(/M<; sfffkk  kkkkkkkkkkkkkk kkkk kkk DDDDDDDDDDDDDDDDZ11",
"12D <M^/^M<; ffkkf  kkkkkkkkkkkkkkk kkkk  kk  DDDDDDDDDDDDDDDZ12",
"12D ,cMMMc,= kfkk   kkkkkkkkkkkkkkk kkkkk kkk DDDDDDDDDDDDDDDZ12",
"12D ;,<<<,;& kkf   kkkkkkkkkkkkkkkk kkkkk  kk  DDDDDDDDDDDDDDZ12",
"12D &=;;;=&  kk  K kkkkkkkkkkkkkkkk kkkkkk kkk DDDDDDDDDDDDDDZ12",
"12DD        sf  P  kkkkkkkkkkkkkkkk kkkkkkk kk DDDDDDDDDDDDDDZ12",
"12DDZDDDDDD    DD kkkkkkkkkkkkkkkk kkkkkkkk  kk DDDDDDDDDDDDDZ12",
"12DDDDDDDDDDDDDD  kkkkkkkkkkkkkkkk kkkkkkkkk kk DDDDDDDDDDDDDZ12",
"12DDDDDDDDDDDDDD kkkkkkkkkkkkkkkkk  kkkkkkkk  k  DDDDDDDDDDDDZ12",
"12DDDDDDDDDDDDD  kkkkkkkkkkkkkkkkkk     kkkkk kk DDDDDDDDDDDDZ12",
"12DDDDDDDDDDDDD kkkkkkkkkkkkkkkkkkkkkkk       kk DDDDDDDDDDDDZ12",
"12DDDDDDDDDDDD  kkkkkkkkkkkkkkkkkkkkkkkkkkkk  kkk DDDDDDDDDDDZ12",
"14DDDDDDDDDDDD kkkkkkkkkkkkkkkkkkkkkkkkkkkkkkkkkk DDDDDDDDDDDB14",
"14DDDDDDDDDDD kkkkkkkkkkkkkkkkkkkkkkkkkkkkkkkkkkk  DDDDDDDDDDB14",
"14DDDDDDDDDDD kkkkkkkkkkkkkkkkkkkkkkkkkkkkkkkkkkkk DDDDDDDDDDB14",
"14DDDDDDDDDD  kkkkkkkkkkkkkkkkkkkkkkkkkkkkkkkkkkkk  DDDDDDDDDB14",
"14DDDDDDDDDD kkkkkkkkkkkkkkkkkkkkkkkkkkkkkkkkkkkkkk DDDDDDDDDB14",
"11111111111  kkkkkkkkkkkkkkkkkkkkkkkkkkkkkkkkkkkkkkk 11111111111",
"11111111111                                           1111111111"
};
