/* XPM */
static char *result[] = {
/* columns rows colors chars-per-pixel */
"64 64 84 1 ",
"  c black",
". c #010101",
"X c #020202",
"o c gray1",
"O c #070606",
"+ c #0B1103",
"@ c #101010",
"# c #111111",
"$ c gray7",
"% c #131212",
"& c gray9",
"* c #171A13",
"= c #171917",
"- c #191F11",
"; c #181B18",
": c #1A2012",
"> c #1B2113",
", c #182417",
"< c #1A3417",
"1 c #16391F",
"2 c #163A1F",
"3 c #2B3F18",
"4 c #163A20",
"5 c #1F3F27",
"6 c #203F27",
"7 c #203E28",
"8 c #213F29",
"9 c #223E29",
"0 c #253D2B",
"q c #243E2A",
"w c #273C2C",
"e c #2C3A2F",
"r c #283C2C",
"t c #2F3831",
"y c #333232",
"u c #343333",
"i c #333533",
"p c #343533",
"a c #343633",
"s c #333634",
"d c #343434",
"f c #353434",
"g c #353534",
"h c #353535",
"j c #363434",
"k c #363535",
"l c #343634",
"z c #303832",
"x c #313833",
"c c #1B4018",
"v c #34501A",
"b c #35501A",
"n c #37541C",
"m c #3D5F1D",
"M c #1F6E18",
"N c #194123",
"B c #1A4123",
"V c #194223",
"C c #1A4223",
"Z c #1A4124",
"A c #1B4124",
"S c #194224",
"D c #1A4224",
"F c #1B4224",
"G c #1A4225",
"H c #1C4124",
"J c #1C4125",
"K c #1C4225",
"L c #1C4126",
"P c #1D4126",
"I c #1F4027",
"U c #41671E",
"Y c #684A30",
"T c #694B31",
"R c #684C30",
"E c #684D31",
"W c #6A4C32",
"Q c #6D4D31",
"! c #4B7C21",
"~ c #4C7C20",
"^ c #4D7F20",
"/ c #25A21A",
"( c #26B11A",
") c #2AD01B",
/* pixels */
"1111111111111111111111111111111111111111111111111111111111111111",
"1111111111111111111111111111111111111111111111111111111111111111",
"41BDDDDDDDDDDDDDDDDDDDDDDDDDDDDDDDDDDDDDDDDDDDDDDDDDDDDDDDDDDD41",
"41BDDDDDDDDDDDDDDDDDDDDDDDDDH80rw07JDDDDDDDDDDDDDDDDDDDDDDDDDD41",
"41BDDDDDDDDDDDDDDDDDDDDDD              DDDDDDDDDDDDDDDDDDDDDDD41",
"41BDDDDDDDDDDDDDDDDDDDD  ajhffhkkffjhj   DDDDDDDDDDDDDDDDDDDDD41",
"21ZDDDDDDDDDDDDDDDDDD  ejfhffkffffdffkfkz  DDDDDDDDDDDDDDDDDDD21",
"21ZDDDDDDDDDDDDDDDD   iffkfkfffffffffffffg 5DDDDDDDDDDDDDDDDDD21",
"21ZDDDDDDDDDDDDDF   fffkfkffffffkfkkkkffff  DDDDDDDDDDDDDDDDDD21",
"21ZDDDDDDDDDDDDA  kkkkffffffkfkfkfkfkkfkkkf DDDDDDDDDDDDDDDDDD21",
"21ZDDVNDDDDDDDD  gkkkkffffkff        kfkkkf  DDDDDDDDDDDDDDDDD21",
"21ZDSSDBSNDDDP  kkkkkffffkf   ##@@$##  kkfkk DDDDDDDDDDDDDDDDD21",
"21ZDDDVDSDCG9  kkkkkjffkf   $$$$$$$#>>: kkkk  DDDDDDDDDDDDDDDD21",
"21ZDDDDDDVDL hkkkkjjkffk  $*>>*$$$$>nUn: kkkk DDDDDDDDDDDDDDDD21",
"21ZDDDDDDDD gkkkkjkkfkf  $*3mm3*$$$>U^U+ kkkk DDDDDDDDDDDDDDDD21",
"21ZDDDDDDD klkkkjjkkfkk %$*b~!v*##$      ykkk 6DDDDDDDDDDDDDDD21",
"21ZDDDDDDD fkkkkkkkkfhk $$*3mm3*$$$$$$$    kk qDDDDDDDDDDDDDDD21",
"21ZDDDDDDD kkkkkkkkkfkk @$$*->*$$$$$$$$$$$  k wDDDDDDDDDDDDDDD21",
"11DDDDDDD  kkkkkk kjkkk $$$$$$$$$$$$$$$$$$$$   DDDDDDDDDDDDDDD11",
"11DDDDDDD fkkkkk  kkkkk #$$$#$$$$$$$$$$$$$$$$$ DDDDDDDDDDDDDDD11",
"11DDDDDDDD gk     kkkkk $$$$$$$$$$$$$$$$$$$$$$$ DDDDDDDDDDDDDD11",
"11DDDDDDDD    DPD kkkkk #$$$#$$$$$$$$$$$$$$$$$$  DDDDDDDDDDDDD11",
"11DDDDDDDDDDDDIDD  kkkk $$$$$$$#$$$$$$$$$$$$$$$$  DDDDDDDDDDDD11",
"11DDDDDDDDDDDDDDDD kkkk  $$$$$$$$$$$$$$$$$$$$$$$$ DDDDDDDDDDDD11",
"11DDDDDDDDDDDDDDDD  kkkk #$$$$$$$$$$$$$$$$$$$$$$$  DDDDDDDDDDD11",
"11DDDDDDDDDDDDDDDDD kkkk  #$$$$$$      $$$$$$$$$$$ DDDDDDDDDDD11",
"11DDDDDDDDDDDDDDDDD  kkkk  o##$@$##o O    $$$$$$$$ DDDDDDDDDDD11",
"11DDDDDDDDDDDDDDDDDD  kkkk            fkk   $$$$$$  DDDDDDDDDD11",
"11DDDDDDDDDDDDDDDDDDD kkkkkk   oX.X  kkkkk    $$$$$ DDDDDDDDDD11",
"11DDDDDDDDDDDDDDDDDDD  kkkkkku      kkkk  ZDD  $$$$ DDDDDDDDDD11",
"11DDDDDDDDDDDDDDDDDDDD  kkkkkkkkkkkkkkk  DDDDDD $$$ DDDDDDDDDD11",
"11DDDDDDDDDDDDDDDDDDDDDD xkkkkkkkkkkkk  DDDDDDDD $$ DDDDDDDDDD11",
"11DDDDDDDDDDDDDDDDDDDDDD  kkkkkkkkkkkk DDDDDDDDDD $ DDDDDDDDDD11",
"11DDDDDDDDDDDDDDDDDDDDDD  kkkkkkkkjkkk    DDDDDDDD  DDDDDDDDDD11",
"11DDDDDDDDDDDDDDDDDDDDDD kkkkkkkkkkkkkkkk  DDDDDDDDDDDDDDDDDDD11",
"11DDDDDDDDDDDDDDDDDDDDD  kkkkkkkkkkkkkkkkf  DDDDDDDDDDDDDDDDDD11",
"11DDDDDDDDDDDDDDDDDDDDD kkkkkkkkkkkkkkkkkkp  DDDDDDDDD    DDDD11",
"11DDDDDDDDDDDDDDDDDDDD  kkkkkkkkkkkkkkfkkkjl  DDDDDD  EQQE DDD11",
"11DDDDDDDDDDDDDDDDDDDD kkkkkkkkkkkkkkkkkkkkkf   DDI  TQQQQR DD11",
"11DDDDDDDDDDDDDDDDDDD  kkkkkkkkkkkkkkkkfkfffkkf    k WQQQQR DD11",
"11DDDDDDDDDDDDDDDDDDD kkkkkk kkkkkkkkkkkfkkffffkkkkk T Q Q  DD11",
"11DDDDDDDDDDDDDDDDDD  kkkkkk kkkkkkkkkkkfk kfkkffkk    Q Y   D11",
"11DDDDDDDDDDDDDDDDDD tkkkkkk kkkkkkkkkkkfk kfkfkkkk &        D11",
"11DDDDDDDDDDDDDDDDDD kkkkkkk kkkkkkkkkkkkf  fkfkkkf =,cMMMc, D11",
"11DDDDDDDDDDDDDDDDD  kk kkkk kkkkkkkkkkkkkk fffkkki ;<M/(/M< D11",
"12DDDDDDDDDDDDDDDDD kkk kkkk kkkkkkkkkkkkkk  kkfffs ;<M()(M< Z11",
"12DDDDDDDDDDDDDDDD  kk  kkkk kkkkkkkkkkkkkkk  fkkff ;<M/(/M< Z12",
"12DDDDDDDDDDDDDDDD kkk kkkkk kkkkkkkkkkkkkkk   kkfk =,cMMMc, Z12",
"12DDDDDDDDDDDDDDD  kk  kkkkk kkkkkkkkkkkkkkkk   fkk &;,<<<,; Z12",
"12DDDDDDDDDDDDDDD kkk kkkkkk kkkkkkkkkkkkkkkk K  kk  &=;;;=& Z12",
"12DDDDDDDDDDDDDDD kk kkkkkkk kkkkkkkkkkkkkkkk  I  fs        DZ12",
"12DDDDDDDDDDDDDD kk  kkkkkkkk kkkkkkkkkkkkkkkk DD    DDDDDDZDZ12",
"12DDDDDDDDDDDDDD kk kkkkkkkkk kkkkkkkkkkkkkkkk  DDDDDDDDDDDDDZ12",
"12DDDDDDDDDDDDD  k  kkkkkkkk  kkkkkkkkkkkkkkkkk DDDDDDDDDDDDDZ12",
"12DDDDDDDDDDDDD kk kkkkk     kkkkkkkkkkkkkkkkkk  DDDDDDDDDDDDZ12",
"12DDDDDDDDDDDDD kk       kkkkkkkkkkkkkkkkkkkkkkk DDDDDDDDDDDDZ12",
"12DDDDDDDDDDDD kkk  kkkkkkkkkkkkkkkkkkkkkkkkkkkk  DDDDDDDDDDDZ12",
"14DDDDDDDDDDDD kkkkkkkkkkkkkkkkkkkkkkkkkkkkkkkkkk DDDDDDDDDDDB14",
"14DDDDDDDDDDD  kkkkkkkkkkkkkkkkkkkkkkkkkkkkkkkkkkk DDDDDDDDDDB14",
"14DDDDDDDDDDD kkkkkkkkkkkkkkkkkkkkkkkkkkkkkkkkkkkk DDDDDDDDDDB14",
"14DDDDDDDDDD  kkkkkkkkkkkkkkkkkkkkkkkkkkkkkkkkkkkk  DDDDDDDDDB14",
"14DDDDDDDDDD kkkkkkkkkkkkkkkkkkkkkkkkkkkkkkkkkkkkkk DDDDDDDDDB14",
"11111111111 kkkkkkkkkkkkkkkkkkkkkkkkkkkkkkkkkkkkkkk  11111111111",
"1111111111                                           11111111111"
};
