/* XPM */
static char *result[] = {
/* columns rows colors chars-per-pixel */
"64 64 97 2 ",
"   c #000000",
".  c #07040B",
"X  c #09050E",
"o  c #0A090B",
"O  c #0A0610",
"+  c #0E0816",
"@  c #100919",
"#  c gray11",
"$  c #16391F",
"%  c #193A1F",
"&  c #190D26",
"*  c #181221",
"=  c #1E1B23",
"-  c #221333",
";  c #251439",
":  c #163A20",
">  c #1F372D",
",  c #272628",
"<  c #2A2332",
"1  c #243E34",
"2  c #293D3B",
"3  c #5F3B37",
"4  c #1A4224",
"5  c #1E4228",
"6  c #224223",
"7  c #20422A",
"8  c #25492E",
"9  c #314221",
"0  c #3A4220",
"q  c #33523B",
"w  c #4B411E",
"e  c #55411C",
"r  c #5C411B",
"t  c #6A4017",
"y  c #64411A",
"u  c #6A4119",
"i  c #704119",
"p  c #554021",
"a  c #2F1947",
"s  c #2F1948",
"d  c #321B4C",
"f  c #32394A",
"g  c #40335F",
"h  c #47266C",
"j  c #49276F",
"k  c #482F6F",
"l  c #552F6F",
"z  c #453169",
"x  c #4C3D69",
"c  c #513161",
"v  c #4E2777",
"b  c #4D2D75",
"n  c #4F2779",
"m  c #4F2979",
"M  c #522E77",
"N  c #502779",
"B  c #522C7D",
"V  c #55317E",
"C  c #4B4B4B",
"Z  c #445D4A",
"A  c #545454",
"S  c #5D5D5D",
"D  c #506656",
"F  c #5F7063",
"G  c gray38",
"H  c #6D6D6D",
"J  c #637267",
"K  c #657469",
"L  c #6F7B72",
"P  c #737D76",
"I  c #7D7D7E",
"U  c #A10008",
"Y  c #7B827C",
"T  c #EBD127",
"R  c #613E87",
"E  c #735494",
"W  c #828783",
"Q  c #858986",
"!  c #878B88",
"~  c #8C8E8D",
"^  c #8F908F",
"/  c #8F9090",
"(  c #919191",
")  c #9B9B9B",
"_  c #A09FA1",
"`  c #A6A6A6",
"'  c gray70",
"]  c #BCBCBC",
"[  c #C3C3C3",
"{  c #C8C7C8",
"}  c #CDCDCD",
"|  c #D7D7D7",
" . c gainsboro",
".. c #E2E2E2",
"X. c #EDEDED",
"o. c #F3F3F3",
"O. c #FFFFFF",
/* pixels */
"$ $ $ $ $ $ $ $ $ $ $ $ $ $ $ $ : : : $ $ $ : : $ $ $ $ $ $ $ $ $ $ $ $ $ $ $ $ $ $ $ $ $ $ $ $ $ $ $ $ $ $ $ $ $ $ $ $ $ $ $ $ ",
"$ $ $ $ : : $ $ $ $ $ $ $ $ $ $ : : $ $ $ $ : : $ $ $ $ $ $ $ $ $ $ $ : $ $ $ $ $ : $ $ $ $ $ $ $ $ $ $ $ $ $ $ $ $ $ $ $ $ $ $ ",
"$ $ 4 4 4 4 4 4 4 4 4 4 4 4 4 4 4 4 4 4 : 4 4 4 4 4 4 4 4 4 4 4 4 4 4 4 4 4 4 4 4 4 4 4 4 4 4 4 4 4 4 4 4 4 4 4 4 4 4 4 4 4 : $ ",
"$ $ 4 4 4 4 4 4 4 4 4 4 4 4 4 4 4 4 4 4 4 4 4 4 4 4 4 4 4 4     6 4 4 4 4 4 4 4 4 4 4 4 4 4 4 4 4 4 4 4 4 4 4 4 4 4 4 4 4 : : $ ",
": $ : 4 4 4 4 4 4 4 4 4 4 4 4 4 4 4 4 4 4 4 4 4 4 4 4 4 4             4 4 4 4 4 4 4 4 4 4 4 4 4 4 4 4 4 4 4 4 4 4 4 4 4 4 4 : : ",
": $ 4 4 4 4 4 4 4 4 4 4 4 4 4 4 4 4 4 4 4 4 4 4 4 4 4 4 4   r t i         4 4 4 4 4 4 4 4 4 4 4 4 4 4 4 4 4 4 4 4 4 4 4 4 4 : : ",
"$ $ 4 4 4 4 4 4 4 4 4 4 4 4 4 4 4 4 4 4 4 4 4 4 4 4 4 4     u i     ( ( (     4 4 4 4 4 4 4 4 4 4 4 4 4 4 4 4 4 4 4 4 4 4 4 : : ",
"$ $ 4 4 4 4 4 4 4 4 4 4 4 4 4 4 4 4 4 4 4 4 4 4 4 4 4                   ( (       4 4 4 4 4 4 4 4 4 4 4 4 4 4 4 4 4 4 4 4 4 $ $ ",
"$ $ 4 4 4 4 4 4 4 4 4 4 4 4 4 4 4 4 4 4 4 4 4 4 4       c l V B V N N N               7 4 4 4 4 4 4 4 4 4 4 4 4 4 4 4 4 4 4 $ $ ",
"$ $ 4 4 4 4 4 4 4 4 4 4 4 4 4 4 4 4 4 4 4 4 4       b M M B B B B B B V B B B B B b N       4 4 4 4 4 4 4 4 4 4 4 4 4 4 4 4 $ $ ",
"$ $ 4 4 4 4 4 4 4 4 4 4 4 4 4 4 4 4 4 4 4 4     b V N N v N B v n n B B B V B B N m R n v     2 4 4 4 4 4 4 4 4 4 4 4 4 4 4 $ $ ",
"$ $ 4 4 4 4 4 4 4 4 4 4 4 4 4 4 4 4 4 4 4     m v v N N v N n n m B N n N n v B R n n n R m     8 4 4 4 4 4 4 4 4 4 4 4 4 4 $ $ ",
"$ $ 4 4 4 4 4 4 4 4 4 4 4 4 4 4 4 4 4 4     m n n n n m N B n n B n n n n n N n v n v n n R n     1 4 4 4 4 4 4 4 4 4 4 4 4 $ $ ",
"$ $ 4 4 4 4 4 4 4 4 4 4 4 4 4 4 4 4 4 1   m n n v n n B N N B n n B B N n B v v n n R m R v n n       4 4 4 4 4 4 4 4 4 4 4 $ $ ",
"$ $ 4 4 4 4 4 4 4 4 4 4 4 4 4 4 4 4 5   m n n n n n B E O.O.O.O.O.N N N B B v v n n n n h n R n N k     4 4 4 4 4 4 4 4 4 4 $ $ ",
"$ $ 4 4 4 4 4 4 4 4 4 4 4 4 4 4 4 5     N n n n n n O.o.O.O.O.O.O.O.O.O.B N N B n n n n     v v R n B     4 4 4 4 4 4 4 4 4 $ $ ",
"$ $ 4 4 4 4 4 4 4 4 4 4 4 4 4 4 4 4   n n n N B E O.O.O.O.O.O.O.O.O.O.O.O.o.N N n n n n         v n N n   4 4 4 4 4 4 4 4 4 : : ",
"$ $ 4 4 4 4 4 4 4 4 4 4 4 4 4 4 4 1   N n N B ..O.O.O.O.O.O.O.O.O.O.O.O.O.O. .N n n n n N   (         b   4 4 4 4 4 4 4 4 4 $ $ ",
"$ $ 4 4 4 4 4 4 4 4 4 4 4 4 4 4 4 4   B n n { o.O.O.O.O.O.O.O.O.O.O.O.O.O.O.o._ n n j n N   ( ~ ( Z       4 4 4 4 4 4 4 4 4 $ $ ",
"$ $ 4 4 4 4 4 4 4 4 4 4 4 4 4 4 4 4   B B & o.  T T U     O.O.O.  T T U     o.[ a R R m m R   ( Q J q     4 4 4 4 4 4 4 4 4 $ $ ",
"$ $ 4 4 4 4 4 4 4 4 4 4 4 4 4 4 4     B B O O.  U U U     O.O.O.  U U U     O.} - n m R R j   / ^ ! K Z   4 4 4 4 4 4 4 4 4 $ $ ",
"$ $ 4 4 4 4 4 4 4 4 4 4 4 4 4 4 4   B B B   X.            O.O.O.            o.[ # j v n n v   / ( ^ ~ K     4 4 4 4 4 4 4 4 $ $ ",
"$ $ 4 4 4 4 4 4 4 4 4 4 4 4 4 4 4   B B B   [ o.O.O.O.O.O.O.O.O.O.O.O.O.O.O.X.) @ h n n n R   ( ( ( ^ Y D     4 4 4 4 4 4 4 $ $ ",
"$ $ 4 4 4 4 4 4 4 4 4 4 4 4 4 4 4   B B B . I ..O.O.O.O.O.O.O.O.O.O.O.O.O.O.| G * v R n n R   / ( ( ( ~ Y K     4 4 4 4 4 4 $ $ ",
"$ $ 4 4 4 4 4 4 4 4 4 4 4 4 4 4 4   B B v @ < ' o.O.O.O.O.O.  O.O.O.O.O.O.X.` , - R n n n R   / ( ( ( ( ^ ^ Y     4 4 4 4 4 : $ ",
"$ $ 4 4 4 4 4 4 4 4 4 4 4 4 4 4 4   B B R s O S { o.O.O.O.O.O.O.O.O.O.O.o.] A . d n n n n n . / ( ( ( ( ( ( Q K     4 4 4 4 $ $ ",
"$ $ 4 4 4 4 4 4 4 4 4 4 4 4 4 4 4   M B n h + + H [ X.O.O.O.O.O.O.O.O.X.' G o @ h n R n n R . / ( ( ( ( ( ( ^ W K   4 4 4 4 $ $ ",
"$ $ 4 4 4 4 4 4 4 4 4 4 4 4 4 4 6     B v R s . o A ` ..O.O.O.O.O.o. .) C o O d h R h v n n . ~ ( ( ( ( ( ( ( ^ !     4 4 4 $ $ ",
"$ $ 4 4 4 4 4 4 4 4 4 4 4 4 4 4         B B j - .   = O.  O.  O.  X.  #   X ; B m R n R x     ^ ^ ( ( ( ( ( ( ( ( W     7 4 $ $ ",
"$ $ 4 4 4 4 4 4 4 4 4 4 4 4 4     y 3     B R h - O   O.  O.  O.  ..    O ; v B n n R h N   Z P ^ ( ( ( ( ( ( ( ^ ^ Y   4 8 $ $ ",
"$ $ 4 4 4 4 4 4 4 4 4 4 4 4 4   e u p 9   R n R m s O .               @ d B B B B R M         F ! ( ( ( ( ( ( ( ( ( /     4 $ $ ",
"$ $ 4 4 4 4 4 4 4 4 4 4 4 4 4   u y w       n m R n h s & O     O & d j B B B B V m     4 4       Y ^ ( ( ( ( ( ( ( ( (     $ $ ",
"$ $ 4 4 4 4 4 4 4 4 4 4 4 4   r u w     2     R B B B B B B B B B B R v n R v R V     4 4 4 4 4       ! ^ ^ / ( ( ( ( ( Y     $ ",
"$ $ 4 4 4 4 4 4 4 4 4 4 4     y y 0   4 4 2     B B B B B B B B B B n n R j n h     4 4 4 4 4 4 4 4     L ! / ( ( ( ( ( ~ K   $ ",
"$ $ 4 4 4 4 4 4 4 4 4 4 6   r y w     4 4 4 1   @ B B B B B B B B R n R n v n .   4 4 4 4 4 4 4 4 4 4 4     ( ( ( ( ( ( ~ P     ",
"$ $ 4 4 4 4 4 4 4 4 4 4     u r     4 4 4 4 5 : O B B B B B B B B B n m R R v   4 4 4 4 4 4 4 4 4 4 4 4 4     ( ( ( ( ( ( Y Z   ",
"$ $ 4 4 4 4 4 4 4 4       y u w   4 4 4 4 4 4   k n n n B B B B n R n n j R h     4 4 4 4 4 4 4 4 4 4 4 4 4     ! ( ( ( ( Q J   ",
"$ $ 4 4 4 4 4 4 4     O.O.  e 9   4 4 4 : .   R B R B B B B B B n n n n R v n R   4 4 4 4 4 4 4 4 4 4 4 4 4 4     P Q ~ ( ( W   ",
"$ $ 4 4 4 4 4 4 4   O.O.O.O.    4 4 4   . . B B B B B B B B B R n n n R n R R h m   4 4 4 4 4 4 4 4 4 4 4 4 4 4     K ! ( ( (   ",
"$ $ 4 4 4 4 4 4   O.O.O.  O.O.          B B B B B B B B B B B B n R n n n n h R V     4 4 4 4 4 4 4 4 4 4 4 4 4 4 4     ( ( (   ",
"$ $ 4 4 4 4 4 4   O.  O.O.  O.  B B n n R R j R B B B B B B B B n n R n R j R R h n   : 4 4 4 4 4 4 4 4 4 4 4 4 4 4 4     ~ (   ",
"$ $ 4 4 4 4 4 4   O.O.  O.O.  B B B R m v n n v B B B B B B B B n n n n   v n n R n   . 4 4 4 4 4 4 4 4 4 4 4 4 4 4 5 4     ~   ",
"$ $ 4 4 4 4 4 4     O.O.    B B B B B n n n R h B B B B B B B B B B B B . R n R n n R     4 4 4 4 4 4 4 4 4 4 4 4 4 4 4 4   Q   ",
"$ $ 4 4 4 4 4 4   r     B B B B B B R n n n R n B B B B B B B B B B B B . n n n n R m n   4 4 4 4 4 4 4 4 4 4 4 4 4 4 4 5       ",
"$ $ 4 4 4 4 4     u r   R n n n R v R . n n n n B B B B B B n R B B R     R n n R n B B     4 4 4 4 4 4 4 4 4 4 4 4 4 4 4 4     ",
"$ $ 4 4 4 4     y u w   n n n R h R   n R n n R B B B B B B n B B B R . n v n R n     B B   4 4 4 4 4 4 4 4 4 4 4 4 4 4 4 4 :   ",
"$ $ 4 4 4 4   e u e   . n n h n R n + R n n n n B B B B B B B B B B B O R v n n R R   N B m   4 4 4 4 4 4 4 4 4 4 4 4 4 4 4 %   ",
"$ $ 4 4 4     y y     . R n R v R   B n n R n n B B B B B B B B B B B + j R R h v n     B B     4 4 4 4 4 4 4 4 4 4 4 4 4 4 $ $ ",
"$ $ 4 4 4   e u r   4   V B     + n R n B B B B B B B B B B B B R n R   v R R n R n R   R n n     4 4 4 4 4 4 4 4 4 4 4 4 4 : : ",
"$ $ 4 4     u y     4         > & B n n B B B B B B B B B B B B n n n   v n v n n n n     n R h     4 4 4 4 4 4 4 4 4 4 4 4 $ $ ",
"$ $ 4     r u e   4 4 4 4 4 4   R B B B B B B B B B B R B B B B n R v   R h m R n R n n   m n R g   4 4 4 4 4 4 4 4 4 4 4 4 $ $ ",
"$ $ 4   w y y     4 4 4 4 4   B B B B B B B B B B B n n B B B B v v R   n R n n n v R N     n R B     4 4 4 4 4 4 4 4 4 4 4 $ $ ",
"$ $     r y     4 4 4 4 4     B B B B B B B B B B B B B B B B B R h n .   B B R R R h R n   R m B b     4 4 4 4 4 4 4 4 4 4 $ $ ",
"$ %   w u r   4 4 4 4 4 5   B B B B B B B B B B B B B B B B B B v R h R     B B v v n n n R   n B B z     4 4 4 4 4 4 4 4 4 $ $ ",
"$ %   y u     4 4 4 4     b B B B B B B B B B B B B B B B B B B R n R v B B         n n m N   R V B k f   4 4 4 4 4 4 4 4 4 $ $ ",
"$     u r   4 4 4 4     b B B B B B B B B B B B B B B B B B B B n h R n B B N R m R   .     R . B B B b     4 4 4 4 4 4 4 4 $ $ ",
":   r y   6 4 4 4 7   v R R v n B B B B B B B B B B B B B B B B n n n R n n n R B B B B R + O . n n h R b     4 4 4 4 4 4 4 $ $ ",
"    u e   4 4 4 7   h v n n v R B B B B B B B B B B B B B B B B n n n n n n n n B B B B R n B B n R n v R b     4 4 4 4 4 4 $ $ ",
"  y y   4 4 5     j R R n n v R B B B B B B B B B B B B B B B B R n n n B B n B B B B B n B B B n R j R n n j   1 4 4 4 4 4 $ : ",
"  t e   4 5     B R v n n R n h B B B B B B B B B B B B B B B B n n n R B B B B B B B B n n B B n n R n v R R M   2 4 4 4 4 $ : ",
"  y   6 >     n R B B B n n n n B B B B B B B B B B B B B B B B B B B B B B B B B B B B n R B B n R n n B B B B B     5 4 : % : ",
"    4 5 . O R n n B B B n R n n B B B B B B B B B B B B B B B B B B B B B B B B B B B B n B B B n n n n B B B B B B     5 4 $ : ",
"$ $     n B B B n B B B B B R n B B B B B B B B B B B B B B B B B B B B B B B B B B n B B B n B R n n R B B B B B B B       $ $ ",
"$ $   b B B B B B B B B B B n n B B B B B B R B B B B B B B B B B B n R B B B B B B B B B B n n n n n n B B V B B B B B b   $ $ "
};
