/* XPM */
static char *result[] = {
/* columns rows colors chars-per-pixel */
"64 64 101 2 ",
"   c #000000",
".  c #07040B",
"X  c #09050E",
"o  c #0A090B",
"O  c #0A0610",
"+  c #0E0816",
"@  c #100919",
"#  c #17131B",
"$  c gray11",
"%  c #16391F",
"&  c #193A1F",
"*  c #190D26",
"=  c #181221",
"-  c #1E1B23",
";  c #221333",
":  c #251439",
">  c #163A20",
",  c #1F372D",
"<  c #2A2332",
"1  c #243E34",
"2  c #293D3B",
"3  c #363537",
"4  c #623F19",
"5  c #5F3B37",
"6  c #3F421E",
"7  c #1A4224",
"8  c #1E4228",
"9  c #224223",
"0  c #20422A",
"q  c #25492E",
"w  c #314221",
"e  c #3A4220",
"r  c #33523B",
"t  c #4B411E",
"y  c #55411B",
"u  c #5C411B",
"i  c #6A4017",
"p  c #64411A",
"a  c #6A4119",
"s  c #704119",
"d  c #554021",
"f  c #2F1947",
"g  c #2F1948",
"h  c #321B4C",
"j  c #332642",
"k  c #32394A",
"l  c #40335F",
"z  c #47266C",
"x  c #49276F",
"c  c #482F6F",
"v  c #552F6F",
"b  c #453169",
"n  c #4C3D69",
"m  c #513161",
"M  c #4E2777",
"N  c #4D2D75",
"B  c #4F2779",
"V  c #4F2979",
"C  c #522E77",
"Z  c #502779",
"A  c #522C7D",
"S  c #55317E",
"D  c #4B4B4B",
"F  c #445D4A",
"G  c #545454",
"H  c #5D5D5D",
"J  c #506656",
"K  c #5F7063",
"L  c gray38",
"P  c #6D6D6D",
"I  c #637267",
"U  c #657469",
"Y  c #6F7B72",
"T  c #737D76",
"R  c #A10008",
"E  c #7B827C",
"W  c #EBD127",
"Q  c #613E87",
"!  c #735494",
"~  c #7F8580",
"^  c #828783",
"/  c #858986",
"(  c #878B88",
")  c #8C8E8D",
"_  c #8F908F",
"`  c #8F9090",
"'  c #919191",
"]  c #9B9B9B",
"[  c #A09FA1",
"{  c #A6A6A6",
"}  c gray70",
"|  c #BCBCBC",
" . c #C3C3C3",
".. c #C8C7C8",
"X. c #CDCDCD",
"o. c #D7D7D7",
"O. c gainsboro",
"+. c #E2E2E2",
"@. c #EDEDED",
"#. c #F3F3F3",
"$. c #FFFFFF",
/* pixels */
"% % % % % % % % % % % % % % % % % % % % % % % % % % % % % % % % % % % % % % % % % % % % % % % % % % % % > > % % % % % % % % % % ",
"% % % % > > % % % % % % % % % % % > % % % % % % % % % % > > % % % % % % % % % % > > % % % % % % % % % % > > % % % % % % % % % % ",
"% % 7 7 7 7 7 7 7 7 7 7 7 7 7 7 7 7 7 7 7 7 7 7 7 7 7 7 7 7 7 7 7 7 7 7 7 7 7 7 7 7 7 7 7 7 7 7 7 7 > 7 7 7 7 7 7 7 7 7 7 7 > % ",
"% % 7 7 7 7 7 7 7 7 7 7 7 7 7 7 7 7 7 7 7 7 7 7 7 7 7 7 7 7 7 9     7 7 7 7 7 7 7 7 7 7 7 7 7 7 7 7 7 7 7 7 7 7 7 7 7 7 7 7 > % ",
"> % > 7 7 7 7 7 7 7 7 7 7 7 7 7 7 7 7 7 7 7 7 7 7 7 7 7 7             7 7 7 7 7 7 7 7 7 7 7 7 7 7 7 7 7 7 7 7 7 7 7 7 7 7 7 > % ",
"> % 7 7 7 7 7 7 7 7 7 7 7 7 7 7 7 7 7 7 7 7 7 7 7 7 7         s i u   7 7 7 7 7 7 7 7 7 7 7 7 7 7 7 7 7 7 7 7 7 7 7 7 7 7 7 > % ",
"% % 7 7 7 7 7 7 7 7 7 7 7 7 7 7 7 7 7 7 7 7 7 7 7     ' ' '     s a     7 7 7 7 7 7 7 7 7 7 7 7 7 7 7 7 7 7 7 7 7 7 7 7 7 7 % % ",
"% % 7 7 7 7 7 7 7 7 7 7 7 7 7 7 7 7 7 7 7 7 7       ' '                   7 7 7 7 7 7 7 7 7 7 7 7 7 7 7 7 7 7 7 7 7 7 7 7 7 % % ",
"% % > 7 7 7 7 7 7 7 7 7 7 7 7 7 7 7 7 7 1               Z A A S A C v m       7 7 7 7 7 7 7 7 7 7 7 7 7 7 7 7 7 7 7 7 7 7 7 % % ",
"% % 7 7 7 7 7 7 7 7 7 7 7 7 7 7 7 7       M N A A A A A C A A A A A A C C N       7 7 7 7 7 7 7 7 7 7 7 7 7 7 7 7 7 7 7 7 7 % % ",
"% % 7 7 7 7 7 7 7 7 7 7 7 7 7 7 2     B A A A A A Q A A A A M M M M Z Z B A C N     7 7 7 7 7 7 7 7 7 7 7 7 7 7 7 7 7 7 7 7 % % ",
"% % 7 7 7 7 7 7 7 7 7 7 7 7 7 1     V B A A N Z B M M Z M A A M Z M A Z B V M M V     7 7 7 7 7 7 7 7 7 7 7 7 7 7 7 7 7 7 7 % % ",
"% % 7 7 7 7 7 7 7 7 7 7 7 7 1     A A M B M V B B B B B M A M Z A Z A M A M M M B V     8 7 7 7 7 7 7 7 7 7 7 7 7 7 7 7 7 7 % % ",
"% % 7 7 7 7 7 7 7 7 7 7 7       M A A Q B Q B B B M M B M A A Z M A M A A Z Z M B B B   1 7 7 7 7 7 7 7 7 7 7 7 7 7 7 7 7 7 % % ",
"% % 7 7 7 7 7 7 7 7 7 7     c A B A M Q B B B B B B B B A M A $.$.$.$.$.Q M A A B B B B   8 7 7 7 7 7 7 7 7 7 7 7 7 7 7 7 7 % % ",
"% % 7 7 7 7 7 7 7 7 7     A Z A M M     B B B B B M M Q $.$.$.$.$.$.$.$.$.$.M Z A M B B     8 7 7 7 7 7 7 7 7 7 7 7 7 7 7 7 % % ",
"% % 7 7 7 7 7 7 7 7 7   C A M M         M M A M M Z #.$.$.$.$.$.$.$.$.$.$.$.$.! A A M M B   8 7 7 7 7 7 7 7 7 7 7 7 7 7 7 7 > > ",
"% % 7 7 7 7 7 7 7 7 7   N         '   M Z M M A A O.$.$.$.$.$.$.$.$.$.$.$.$.$.$.+.Z Z M B   1 7 7 7 7 7 7 7 7 7 7 7 7 7 7 7 > > ",
"% % 7 7 7 7 7 7 7 7 7       F _ ( '   M M A Z A ] @.$.$.$.$.$.$.$.$.$.$.$.$.$.$.#...M A Q   7 7 7 7 7 7 7 7 7 7 7 7 7 7 7 7 > > ",
"% % 7 7 7 7 7 7 7 7 7     r I ( '   A Q A A M j  .$.    R W W   $.$.$.    R W W   #.* A A   7 7 7 7 7 7 7 7 7 7 7 7 7 7 7 7 % % ",
"% % 7 7 7 7 7 7 7 7 7   F U ( ` `   V B A M M < X.$.    R R R   $.$.$.    R R R   $.. A A     7 7 7 7 7 7 7 7 7 7 7 7 7 7 7 % % ",
"% % 7 7 7 7 7 7 7 7     U ) _ ' `   Q B A A N -  .#.            $.$.$.            @.  A A B   7 7 7 7 7 7 7 7 7 7 7 7 7 7 7 % % ",
"% % 7 7 7 7 7 7 7     J E _ ' ' '   A Q A A M # ] @.$.$.$.$.$.$.$.$.$.$.$.$.$.$.#. .  Q Q M   7 7 7 7 7 7 7 7 7 7 7 7 7 7 7 % % ",
"% % 7 7 7 7 7 7     U E ) _ ' ' '   A A M A M = L o.$.$.$.$.$.$.$.$.$.$.$.$.$.$.+.! . B A A   7 7 7 7 7 7 7 7 7 7 7 7 7 7 7 % % ",
"% % 7 7 7 7 7     E _ _ ' ' ' ' '   A A B Q z ; ; [ @.$.$.$.$.$.$.  $.$.$.$.$.#.} 3 * Q B B   7 7 7 7 7 7 7 7 7 7 7 7 7 7 7 % % ",
"% % 7 7 7 7     U ( ' ` ' ' ' ' '   A S B z B g O D | #.$.$.$.$.$.$.$.$.$.$.#...H X g V Q V   7 7 7 7 7 7 7 7 7 7 7 7 7 7 7 % % ",
"% % 7 7 7 7   U ~ _ ' ' ' ' ' ' '   A A z Q B z @ O H | @.$.$.$.$.$.$.$.$.#. .P + + z M B M   7 7 7 7 7 7 7 7 7 7 7 7 7 7 7 % % ",
"% % 7 7 7     ( _ ' ' ' ' ' ' ' '   A A Q M Q M g O . D ] O.$.$.$.$.$.$.+.{ G o . g B Q B     7 7 7 7 7 7 7 7 7 7 7 7 7 7 7 % % ",
"% % 7 0     ^ _ ' ' ' ' ' ' ' _ )     n A A B Q Q ; O . #   @.  $.  $.  $.$ . . ; B Q B         7 7 7 7 7 7 7 7 7 7 7 7 7 7 % % ",
"% % q 7   E _ ' ' ' ' ' ' ' ' _ T F   A A A B Q Q x : O     +.  $.  $.  $.  X ; z Q M     5 a     7 7 7 7 7 7 7 7 7 7 7 7 7 % % ",
"% % 7     _ ' ' ' ' ' ' ' ' ' ( K         N Q V B M Q g @ .               + f C B V A   w d a y   7 7 7 7 7 7 7 7 7 7 7 7 7 % % ",
"% %     ' ' ' ' ' ' ' ' ' _ ~       7 7     M B B Q z B z g * O     X * h z A A B Q       6 p a   7 7 7 7 7 7 7 7 7 7 7 7 7 % % ",
"%     E ' ' ' ' ' ' ' ) (       7 7 7 7 7     A A A A B A A A A A A B Q z B B Q A     2     d a u   7 7 7 7 7 7 7 7 7 7 7 7 % % ",
"%   U ( ' ' ' ' ' _ ( Y     7 7 7 7 7 7 7 7     B A A B A A A A M Q M Q Q M B B     2 7 7   e u p     7 7 7 7 7 7 7 7 7 7 7 % % ",
"    T ` ' ' ' ' ' `     7 7 7 7 7 7 7 7 7 7 7   + B A Q A A A A B B B B Q B B .   1 7 7 7     t p u   7 7 7 7 7 7 7 7 7 7 7 % % ",
"  F E ' ' ' ' ' _     7 7 7 7 7 7 7 7 7 7 7 7 8 O A A A A A A B Q B Q B M B Q   8 7 7 7 7 7     u a     7 7 7 7 7 7 7 7 7 7 % % ",
"  I / ` ' ' _ (     7 7 7 7 7 7 7 7 7 7 7 7 7   . Q z B B B B B A A B Q Q Q B h   7 7 7 7 7 8   t a p       7 7 7 7 7 7 7 7 % % ",
"  / ` ` _ ( T     7 7 7 7 7 7 7 7 7 7 7 7 7 7   Q B B Q B B Q B A B B B z B B Q V     7 7 7 7 . w u   $.$.    7 7 7 7 7 7 7 % % ",
"  ' ' ` ( U     7 7 7 7 7 7 7 7 7 7 7 7 7 7 . Q B B B B B Q Q B A A B B B B B B A Q       7 > >     $.$.$.$.  7 7 7 7 7 7 7 % % ",
"  ' ' `     7 7 7 7 7 7 7 7 7 7 7 7 7 7 >   . B B B Q B B B B B A A B Q B B B Q A A A A     . O   $.$.  $.$.$.  7 7 7 7 7 7 % % ",
"  ' (     7 7 7 7 7 7 7 7 7 7 7 7 7 7 7 7   A A M M Q Q M M B B A A A A A A A A A A A A B B B Q   $.  $.$.  $.  7 7 7 7 7 7 % % ",
"  _     7 0 7 7 7 7 7 7 7 7 7 7 7 7 7 7     A A Q B M   x Q B Q A A A A A A A A A A A A Q B B B A   $.$.  $.$.  7 7 7 7 7 7 % % ",
"  (   7 7 7 7 7 7 7 7 7 7 7 7 7 7 7 7     B A A Q M V   Q Q B B A A A A A A A A A A A A B B B B A A     $.$.    7 7 7 7 7 7 % % ",
"      8 7 7 7 7 7 7 7 7 7 7 7 7 7 7 7   M Q A A B B Q . z B B B A A A A A A A A A A A A B B Q B A A A A     u   7 7 7 7 7 7 % % ",
"    7 7 7 7 7 7 7 7 7 7 7 7 7 7 7 7     A A A A Q B B .   B z Q A A A A A A A A A A A A + A z Q A A A A   p a     7 7 7 7 7 % % ",
"  > 7 7 7 7 7 7 7 7 7 7 7 7 7 7 7 7   B A     Q z Q B B   B Q M A A A A A A A A A A A A Q O M Q A A A A   t a p     7 7 7 7 % % ",
"  & 7 7 7 7 7 7 7 7 7 7 7 7 7 7 7   N Q A   V A Q x B B   Q Q M A A Q A A A A A Q A A A B O Q M Q B A A     y a y   7 7 7 7 % % ",
"& & 7 7 7 7 7 7 7 7 7 7 7 7 7 7     A A     A A B M Q Q   B B B A A B B A A A A A A A A B B   Q B M Q A       p p     7 7 7 % % ",
"& % 7 7 7 7 7 7 7 7 7 7 7 7 7     Q B A   A Q M B M Q M   V Q Q A A A A A A A A A A A A Q B Q O     A A   7   u a y   7 7 7 > % ",
"% % 7 7 7 7 7 7 7 7 7 7 7 7     N A B     A B B Q M B B   B B B Q A A A A A A A A A A A B B B + ,         7     p a     7 7 % % ",
"% > 7 7 7 7 7 7 7 7 7 7 7 7   l A A A   A Q B Q B Q Q M   Q B Q B A A A A A A A A A B B B B A A   7 7 7 7 7 7   y a u     7 % % ",
"% % 7 7 7 7 7 7 7 7 7 7 7     S A A     A A B V B B B B . B B B A A A A A A A A Q A B B Q B A A C   7 7 7 7 7     u p t   7 % % ",
"% % 7 7 7 7 7 7 7 7 7 7     N S A A   A B Q z Q B B Q     V B B A A A A A A A A B A A A A A A A A     7 7 7 7 7     p u     % % ",
"% > 7 7 7 7 7 7 7 7 7     b A A A   A A B B B Q Q B     B Q Q z A A A A A A A A B A A A A A A A A A   8 7 7 7 7 7   u a t   & % ",
"% > 7 7 7 7 7 7 7 7 7   k N A A B   B Q B B O . . . Q z B B Q Q A A A A A A A A A A A A A Q A A A A N     7 7 7 7     a p   & % ",
"% > 7 7 7 7 7 7 7 7     N A A A   Q     . . A A Q z M Q Q M M M A A A A A A A A A A A A A A A A A A A N     7 7 7 7   u p     % ",
"> > 7 7 7 7 7 7 7     N Q Q M B @ + O B Q B B A A A A A A A A A A A A A A A A A A A A A A A A A B B Q B N   , , 7 7 9   a u   > ",
"% > 7 7 7 7 7 7     z Q B B x Q A A Q B B B B B A A A A A A A A A A A A A A A A A A A A A A A A Q B B z Q c . , 7 7 7   u p     ",
"% > 7 7 7 7 > 1   x V B B Q Q M A A A Q B B B Q A A A A A A A A A A A A A A A A A A B B A A A A B B B Q B Q B .   7 7 9   p p   ",
"% > 7 7 7 8 2   C Q Q M B B B B A A A A B Q B B A A A A A A A A A A A A A A A A A A B Q A A A A B B M Q B M B z     7 7   y a   ",
"% > 7 7 > .   M Q A A A B Q B B A A A A A A A A A A A A A A A A A A A A A A A A A A A A A A A A B B B B Q B B Q C     7 9   4   ",
"% > 7 8 . . V Q B A A A B B B B A A A A A A A A A A A A A A A A A A A A A A A A A A A A A A A A Q B A A z Q B B Q A     0 7     ",
"% %     O Q A A B B A A A A B Q A A A A A A A A A A A A A A A A Q A A A A A A A A A A A A A A A A A A Q M M Q B B B A c     % % ",
"% %   N A A A A A A A A A B B B A A A A A A A A A A A A A A A A A A A A A A A A A A A A A A A A A B B B Q B M B Q V A A N   % % "
};
