/* XPM */
static char *result[] = {
/* columns rows colors chars-per-pixel */
"64 64 92 1 ",
"  c #16391F",
". c #163A20",
"X c #1B3923",
"o c #213A27",
"O c #243A2B",
"+ c #2A3B2F",
"@ c #2C3C31",
"# c #323C36",
"$ c #353C3A",
"% c #393D3C",
"& c #1A4224",
"* c #1E4228",
"= c #23422C",
"- c #2C4333",
"; c #314337",
": c #34443A",
"> c #39443E",
", c #433E44",
"< c #4D3F4D",
"1 c #513F52",
"2 c #3D4441",
"3 c #414445",
"4 c #464549",
"5 c #4B454D",
"6 c #4F4551",
"7 c #544554",
"8 c #584657",
"9 c #574857",
"0 c #574658",
"q c #5B465B",
"w c #60465E",
"e c #644662",
"r c #694666",
"t c #624860",
"y c #6D476A",
"u c #6C4869",
"i c #72476D",
"p c #73486E",
"a c #754770",
"s c #7A4775",
"d c #764870",
"f c #7B4875",
"g c #7F4778",
"h c #7E4878",
"j c #82467C",
"k c #83487C",
"l c #89497F",
"z c #8A4582",
"x c #874981",
"c c #8B4983",
"v c #904987",
"b c #97478C",
"n c #98468E",
"m c #94498B",
"M c #99498F",
"N c #9D4A92",
"B c #A24795",
"V c #A24A96",
"C c #A64A99",
"Z c #AB4A9D",
"A c #AE4BA1",
"S c #B34BA5",
"D c #B74BA8",
"F c #BC4BAC",
"G c #C04CAF",
"H c #C44CB3",
"J c #C94BB6",
"K c #CD4CBA",
"L c #D14DBE",
"P c #CF52BC",
"I c #D252BE",
"U c #D44DC0",
"Y c #D553C2",
"T c #D55BC4",
"R c #D95BC6",
"E c #D95FC8",
"W c #D760C7",
"Q c #D863C7",
"! c #DA64C9",
"~ c #DC6CCB",
"^ c #DE71CE",
"/ c #DF75D0",
"( c #E077D1",
") c #E17BD2",
"_ c #E485D7",
"` c #E587D8",
"' c #E78BDA",
"] c #E992DC",
"[ c #EA98DE",
"{ c #EC9EE1",
"} c #EEA5E4",
"| c #EFA9E5",
/* pixels */
"                                   Xo+#$,<111q111,#X............",
"                                ..oO$,1qeyzzzzzjj1%+..........  ",
"  &&&&&&&&&&&&&&&&&&&&&&&&&&&&&*=->31ejlnnADDZSDCs1$**&&.&&&&&. ",
"  &&&.&&&&&&&&&&&&&&&&&&&&&&&&*O;37esvZSSZFUFAFKDj1$*&&&&&&&&.. ",
". &&&&&&&&&&&&&&&&&&&&&&&&&&&&*-3qjzNVDLFADFDDFHAx02O&&&&&&&&&..",
". &&&&&&&&&&&&&&&&&&&&&&&&&&&&->0jAFFDFGFBBBZZDBny22*&&&&&&&&&..",
"  &&&&&&&&&&&&&&&&&&&&&&&&&&&=:4ebFUJFFZBnnBZFFDnu2-*&&&&&&&&&..",
"  &&&&&&&&&&&&&&&&***==*&&&&=:3tgBFJKJHAnBBBZFUDxq2-&&&&&&&&&&..",
"   &&&&&&&&&&&&&&**-::;;=**=$,wznSFJKLJSBDFFDFFAj02==**&&&&&&&  ",
"  &&&&&&&&&&&&&&*=:26662:-;2<ezZFGJKLLJFDJLJDDBzu022;-*&&&&&&&  ",
"  &&&& &&&&&&&&&*-20ssfq4447tanFLJKLULJFFJJLJHBse006622*&&&&&&  ",
"  &&&&&&.&&&&&&&=:6fVANhq6wgzNBFJKKUUUKJHJJJUHnawehff02-&&&&&&  ",
"  &&&&&&&&&.&&&&*:6fAKAheexCDDSGHKUUKKLKKLKLJHnsrhNSVf6-&&&&&&  ",
"  &&&&&&&&&&&&&&=:6sVACjyyzDKHFJKUUUUUKKLLULHDnyrhAUAf62*&&&&&  ",
"  &&&&&&&&&&&&&&*-20fhhiihNDHGGKULLUULLKLUUUJFnsehNANf52*&&&&&  ",
"  &&&&&&&&&&&&&&*=:277wesnCDDFJKULLLKLLKJJJKUHnr0wfff02-*&&&&&  ",
"  &&&&&&&&&&&&&&&*=:>37uvDHJHGJKLLLLLUULKKKKJDbr646662:=&&&&&&..",
"  &&&&&&&&&&&&&&&*==;3qdnHLKKKJKJLLLUUULLKKHFSzw42;;:;**&&&&&&  ",
"  &&&&&&&&&&&*====-->7ucZHKLLUKJHJLULLLLKKKJHDbr2-=*=*&&&&&&&&  ",
"  &&&&&&&&&**-::2>:>5ekCDJKULLKJGJLLUULLJJHJLHbr2-**&&&&&&&&&&  ",
"  &&&&&&&&*=:2698756tjCHKLLLUUKKHJLLUUULLKJHJFBp7:*&&&&&&&&&&&  ",
"  &&&&&&&&*-2qhklrergNDKULLUUUKKJKLLUUUULKHGFDVjw2-*&&&&&&&&&&  ",
"  &&&&&&&&*:9hCSZvslNDJLUUUUUUUULULUUUUULKHHHJDMu5;=*&&&&&&&&&  ",
"  &&&&&&&&=:9kSIDbcMSKLLUUUUUUUULUUULULLKJJJKLGBa62=**&&&&&&&&  ",
"  &&&&&&&&&-9kZDSNMZJPUUUUUUUPKKUUULLLLLKLLLKKHZjq2-=**&&&&&&&  ",
"  &&&&&&&&*;6ucmbmVDJUUUUUUUKKKKLLLLLLLLKLLLKJJAvr6>;=*&&&&&&&  ",
"  &&&&&&&*=;4qpdcmZFKLULUULKKJJPKLLKLLLLKLKLILLFNd73:-=*&&&&&&  ",
"  &&&&&&&==:39tpkbAHKLLILUKLKJJJJLJLLLLLLKKLLLLHVgq42;=*&&&&&&  ",
"  &&&&&&*=-:29tpcCFJILKLLLPPKPPPIIIIKLLLLKKLLUIHZke622;-=**&&&  ",
"  &&&&&&*=;249ufmZFKLLKKKKPPPITTTTTILLULLKKLLLLHAcy86542>-=&&&  ",
"  &&&&&&=-:25tucCDHKILKKKPITWTQQQQERRRUUYLKKLKKFAvaewwt802;=&&  ",
"  &&&&&&=->49uhmZGHPKJJJPPTQ~~~~^^~~~ERRYIKLLLKHSvhpydckkq2-&&  ",
"  &&&&&*-;258icVFJKKKJKPPTQ~^^^^^/^^^~QEYILLLLKGSMlffvASCf6;=&..",
"  &&&&**-:35qpcVFKULPKPPWQ~^^))))))/^^~QEYIILLKJSVljkmDPSh7;=&..",
"  &&&&*=->47esvZFPLLKPPTQ~^^))_)))_))/^~!YYILLLJDZmkkmZDCh7;=&. ",
"  &&&&*=-:57efmZFJKLKKPTQ^^/)_`'''``))/~~EYLLLLKGZmlfhvckt3-*&  ",
"  &&&&*-;>58rfmZFJKLYYYW~^/___']]]]'__/^~EYILLLLGSMkfpieq5:=*&  ",
"  &&&&*=;26qykmZFJLUKYTQ~^//`'[[{{}['_)/~!RYLLLKGSMkprq74>=*&&  ",
"  &&&&*=;36qpjmCFJLILYTQ^/__'][}}|}['')/~~EYLLKKGSVkyw63>-*&&&  ",
"  &&&&*->5qydcmZDJKLPPWQ~///']}||||{]')/~!RILLLKJSMkyq5>;=*&&&  ",
"  &&&&*-4qpfccNZFJLLLYT!~/()']{||||{]'((~!RYILLLHANjyq52;=*&&&. ",
"  &&&&=>7umMCNVZDHLLIYTQ~^)_']{|||}{]'((~!RILLLLHSNxdq63;-*&&&  ",
"  &&&*=2wcSFFAVZDHLILIYW~^()_'[[{}{['_/^~ERLPLLKHANcfuq5:-*&&&  ",
"  &&&&=2qkDIFCVCSFJKLYYT~~(()_']]]''_)/^!RRLLLLKHSNvkfy03-=&&&  ",
" .&&&&=2qlSDDCNVZFHKLYYT!~^())`''`'_)(^~!RYILLLKHANMNmvu6:=&&&  ",
" .&&&&=;5ucmNvmMCSFJKUYYR!~~(())))(((~~!RYLLLLLKFZVZDDAc8>=&&&  ",
"  &&&&*=27rpfklvMZFHLLLYYEE~~(((/((/~~ERRYLLLKKHDCNCFPSx8>=&&&  ",
"  &&&&&=-259wpflmCDFJKLLRYEEE~~~~~~~~EERIULLLLKGSVmNSDZk7>=&&&  ",
"  &&&&&&*-247tufcNZDHJLUUYYRREE!!E!RERYYYLLLPLKFZvklmcct4;*&&&. ",
"  &&&&&&*=;249tdkvVADHKLUUYYYRRRRRRRYYYLLLLKKKJDNkduyet4>=*&&&  ",
"  &&&&&&*=-:26qrfcmVAFJILLUUYYYYYYYYULILLUKJJFDCcdeq753:=*&&&&  ",
"  &&&&&&&==;247qyhcNCSGJLLLLULILUUYLUULIKLKHFAVvfe953>-=*&&&&&  ",
"  &&&&&&&*=-;269eijcNCSFGHJKKILLUUULLLKJKHHSZNcsrq52:-=*&&&&&&..",
"  &&&&&&&**=->250eijvmVZSDFGGHKJLKKJPJJGFSAVMcfrq53>-=*&&&&&&. .",
"  &&&&&&&&&==->350tdhcmNVZZSDDGGFFHFFFFSZVMckae053>-==*&&&&&&&  ",
"  &&&&&&&&&*=-;2460tufkcmbBCZZZASASSZZVNNvchye863>;-=*&&&&&&&&  ",
"  &&&&&&&&&&&=-;2250qrpfkcvmNNNVBBVBMNmcxfpet0522;-*&&&&&&&&&&  ",
"  &&&&&&&&&&&&*-;>267qeudhkxcvvcvcvvckkfdutq752>;-*&&&&&&&&&&&  ",
"  &&&&&&&&&&&&*=-->2460qrriaffjgkkfffpiytt9642>--*&&&&&&&&&&&&  ",
"  &&&&&&&&&&&&&*==-:224608qteryrruyreeq876422;--**&&&&&&&&&&&&  ",
"  &&&&&&&&&&&&&&**=-;;24456778q8q8887755422:;-=**&&&&&&&&.&&&&  ",
"  &&&&&&&&&&&&&&&&*=--->>>3444565565543>2:;-==*&*&&&&&&&&&&&&&  ",
"              &. ..XXXoO@@#$$>%$%%%%$$$@@OOXXX..  &             ",
"               .....XXXXoOO@@@@@@@@@@@OOOXXX..                  "
};
